<svg id="Layer_1" enable-background="new 0 0 64 64" height="" viewBox="0 0 64 64" width="" xmlns="http://www.w3.org/2000/svg"><g><path d="m24 27c6.0654297 0 11-4.9345703 11-11-.6042175-14.5930028-21.3980064-14.5887545-22.000021.000082.000021 6.0653477 4.9345913 10.999918 11.000021 10.999918zm0-20c4.9628906 0 9 4.0371094 9 9-.4718513 11.9311466-17.5299644 11.9277916-18.0000153-.0000925.0000153-4.9627981 4.0371247-8.9999075 9.0000153-8.9999075z"/><path d="m33.9804688 57h-26.9804688v-14c0-7.1679688 5.8320312-13 13-13h8c2.859375 0 5.6669922.9560547 7.9072266 2.6904297.4365234.3408203 1.0654297.2597656 1.4023438-.1777344.3388672-.4365234.2587891-1.0644531-.1777344-1.4023438-2.5888672-2.0058593-5.8320313-3.1103515-9.131836-3.1103515h-8c-8.2714844 0-15 6.7285156-15 15v15c0 .5527344.4472656 1 1 1h27.9804688c1.3026275-.0127296 1.3137817-1.9890785 0-2z"/><path d="m46 33c-7.1679688 0-13 5.8320312-13 13 .7144623 17.2462082 25.288166 17.241188 26.0000229-.0000992-.0000229-7.1678696-5.8320541-12.9999008-13.0000229-12.9999008zm0 24c-6.0654297 0-11-4.9345703-11-11 .6042175-14.5930023 21.3980064-14.5887547 22.0000191.0000839-.0000191 6.0653458-4.9345894 10.9999161-11.0000191 10.9999161z"/><path d="m52 43.1842651v-2.0534058c0-2.2773437-1.7939453-4.1308593-4-4.1308593h-4c-2.2060547 0-4 1.8535156-4 4.1308594v2.0534058c-1.161499.4141235-2 1.5137939-2 2.8157348v2c0 1.3024292.8391113 2.4023438 2.0012817 2.8161011-.0006866 1.7582588 1.3948097 2.8616486 3.0388184 3.0808716.4964676 2.9857445 4.9317741 2.6496468 4.9598923-.3970718.0483856-2.3352394-3.0830536-3.3949776-4.455986-1.5381088-.5790596-.1293106-1.4159317-.2434006-1.5114746-.9683838.5366821-.0181886.9674682-.4522096.9674682-.9934083v-6c0-.5527344-.4472656-1-1-1v-1.8691406c0-1.1748047.8974609-2.1308594 2-2.1308594h4c1.1025391 0 2 .9560547 2 2.1308594v1.8691406c-.5527344 0-1 .4472656-1 1v6c0 .5527344.4472656 1 1 1h1c1.6542969 0 3-1.3457031 3-3v-2c0-1.3019409-.838501-2.4016113-2-2.8157349zm-6 10.3157349c-.0037308.653553-.9963608.6535149-1-.0000305.0037308-.6535225.9963608-.6534844 1 .0000305zm-6-7.5c0-.5517578.4482422-1 1-1v4c-.5517578 0-1-.4482422-1-1zm12 2c0 .5517578-.4482422 1-1 1v-4c.5517578 0 1 .4482422 1 1z"/></g></svg>