<svg height="" viewBox="0 0 480 480" width="" xmlns="http://www.w3.org/2000/svg"><path d="m456 0h-432c-13.253906 0-24 10.746094-24 24v272c0 13.253906 10.746094 24 24 24h432c13.253906 0 24-10.746094 24-24v-272c0-13.253906-10.746094-24-24-24zm8 296c0 4.417969-3.582031 8-8 8h-432c-4.417969 0-8-3.582031-8-8v-272c0-4.417969 3.582031-8 8-8h432c4.417969 0 8 3.582031 8 8zm0 0"/><path d="m200 416h-48c-13.253906 0-24 10.746094-24 24v40h96v-40c0-13.253906-10.746094-24-24-24zm-56 48v-24c0-4.417969 3.582031-8 8-8h48c4.417969 0 8 3.582031 8 8v24zm0 0"/><path d="m72 416h-48c-13.253906 0-24 10.746094-24 24v40h96v-40c0-13.253906-10.746094-24-24-24zm-56 48v-24c0-4.417969 3.582031-8 8-8h48c4.417969 0 8 3.582031 8 8v24zm0 0"/><path d="m328 416h-48c-13.253906 0-24 10.746094-24 24v40h96v-40c0-13.253906-10.746094-24-24-24zm-56 48v-24c0-4.417969 3.582031-8 8-8h48c4.417969 0 8 3.582031 8 8v24zm0 0"/><path d="m456 416h-48c-13.253906 0-24 10.746094-24 24v40h96v-40c0-13.253906-10.746094-24-24-24zm-56 48v-24c0-4.417969 3.582031-8 8-8h48c4.417969 0 8 3.582031 8 8v24zm0 0"/><path d="m416 376c0-13.253906-10.746094-24-24-24h-48c-13.253906 0-24 10.746094-24 24v32h96zm-80 0c0-4.417969 3.582031-8 8-8h48c4.417969 0 8 3.582031 8 8v16h-64zm0 0"/><path d="m288 376c0-13.253906-10.746094-24-24-24h-48c-13.253906 0-24 10.746094-24 24v32h96zm-80 0c0-4.417969 3.582031-8 8-8h48c4.417969 0 8 3.582031 8 8v16h-64zm0 0"/><path d="m160 376c0-13.253906-10.746094-24-24-24h-48c-13.253906 0-24 10.746094-24 24v32h96zm-80 0c0-4.417969 3.582031-8 8-8h48c4.417969 0 8 3.582031 8 8v16h-64zm0 0"/></svg>