<?xml version="1.0" encoding="UTF-8"?>
<svg version="1.1" xmlns="http://www.w3.org/2000/svg" width="78" height="78">
<path d="M0 0 C4.30828871 2.31984777 7.16302763 4.40756907 9 9 C9.72011316 13.80075437 9.5059086 17.0579633 7.1875 21.375 C5.52697382 23.36763142 3.92596844 25.2666284 2 27 C3.093125 27.103125 4.18625 27.20625 5.3125 27.3125 C9 28 9 28 10.9375 29.375 C12 31 12 31 12 34 C13.65 34.33 15.3 34.66 17 35 C17.495 34.01 17.495 34.01 18 33 C19.9169986 33.31045732 21.83358723 33.62344671 23.75 33.9375 C24.81734375 34.11152344 25.8846875 34.28554688 26.984375 34.46484375 C32.14775889 35.38114374 32.14775889 35.38114374 34 36 C34.33 36.66 34.66 37.32 35 38 C35.309375 38.5775 35.61875 39.155 35.9375 39.75 C38.63903981 45.47090783 39.6822953 49.86023613 38 56 C35.51299244 60.78979235 32.78979235 63.51299244 28 66 C23.6601247 67.29047208 20.66575906 67.20311293 16.3125 65.875 C11.74689598 63.29069584 8.8938219 60.34073285 6 56 C5.85778935 53.39754502 5.81197068 50.90882316 5.875 48.3125 C5.88402344 47.61060547 5.89304688 46.90871094 5.90234375 46.18554688 C5.92586296 44.45688475 5.96173287 42.72839855 6 41 C6.99 40.67 7.98 40.34 9 40 C10.68538601 38.00334686 10.68538601 38.00334686 12 36 C3.92057438 31.09541643 -5.19971807 30.54837988 -14.37890625 32.5078125 C-18.38444032 34.013132 -20.74366778 36.44193765 -23 40 C-23.88672082 42.85923743 -24.17532084 45.56392639 -24.31640625 48.546875 C-24.35451416 49.30838867 -24.39262207 50.06990234 -24.43188477 50.85449219 C-24.47498779 51.81000977 -24.51809082 52.76552734 -24.5625 53.75 C-24.706875 56.8025 -24.85125 59.855 -25 63 C-13.78 63 -2.56 63 9 63 C8.505 64.98 8.505 64.98 8 67 C3.05209823 67.0493651 -1.89566083 67.08570269 -6.84375 67.10986328 C-8.52769466 67.11993317 -10.21162179 67.13358988 -11.89550781 67.15087891 C-14.31319501 67.17508426 -16.73065143 67.18647296 -19.1484375 67.1953125 C-19.9036972 67.20563507 -20.65895691 67.21595764 -21.43710327 67.22659302 C-23.2929398 67.22699318 -25.1481928 67.12222716 -27 67 C-29.89517416 64.10482584 -29.29122749 61.71159412 -29.32226562 57.75 C-29.31904297 56.80125 -29.31582031 55.8525 -29.3125 54.875 C-29.32861328 53.94945312 -29.34472656 53.02390625 -29.36132812 52.0703125 C-29.36621341 45.15274741 -28.70098457 39.30568261 -24.16796875 33.7578125 C-20.26574644 30.54059568 -17.05530575 28.13744379 -12 27 C-12.42152344 26.44570313 -12.84304687 25.89140625 -13.27734375 25.3203125 C-14.09912109 24.23363281 -14.09912109 24.23363281 -14.9375 23.125 C-15.48277344 22.40570312 -16.02804688 21.68640625 -16.58984375 20.9453125 C-19.78553431 16.53685294 -18.69758909 13.16931404 -18 8 C-17.9175 7.030625 -17.835 6.06125 -17.75 5.0625 C-17 3 -17 3 -14.75 1.8125 C-13.8425 1.544375 -12.935 1.27625 -12 1 C-11.21625 0.608125 -10.4325 0.21625 -9.625 -0.1875 C-6.01889882 -1.30367417 -3.65291652 -0.89720757 0 0 Z M-12 6 C-14.56092293 8.47261524 -14.97138496 9.80684849 -15.5 13.375 C-14.85372061 18.06052555 -13.50963148 19.86373357 -10 23 C-5.9703191 24.24553773 -3.77363588 24.23804181 0.25 23 C3.8861144 20.35555316 4.84613016 18.32701188 6 14 C5.43846089 10.25640595 4.85644575 7.95160639 2.3125 5.125 C-3.0874663 2.49798937 -7.24792802 2.17194202 -12 6 Z M-8 27 C-8 27.33 -8 27.66 -8 28 C-5.69 28 -3.38 28 -1 28 C-1 27.67 -1 27.34 -1 27 C-3.31 27 -5.62 27 -8 27 Z M13 40 C9.56275251 45.61111213 9.56275251 45.61111213 9.25 52 C9.4975 52.99 9.745 53.98 10 55 C10.66 55 11.32 55 12 55 C12.12375 53.96875 12.2475 52.9375 12.375 51.875 C12.93948853 48.37517112 13.83688668 45.33425817 15 42 C15 41.34 15 40.68 15 40 C14.34 40 13.68 40 13 40 Z M29 40 C29.49730652 44.97306516 30.55302334 48.63799813 33 53 C33.66 53 34.32 53 35 53 C34.76947367 45.81545101 34.76947367 45.81545101 31 40 C30.34 40 29.68 40 29 40 Z M19 42 C17.96884721 45.26913624 18.0361016 47.86041348 18.4375 51.25 C18.53933594 52.14203125 18.64117187 53.0340625 18.74609375 53.953125 C18.82988281 54.62859375 18.91367187 55.3040625 19 56 C19.78375 56.061875 20.5675 56.12375 21.375 56.1875 C22.24125 56.455625 23.1075 56.72375 24 57 C25.3125 59.5625 25.3125 59.5625 26 62 C27.65 61.34 29.3 60.68 31 60 C30.67 59.01 30.34 58.02 30 57 C27.98491642 56.26676204 27.98491642 56.26676204 26 56 C25.80467039 54.2300132 25.61901118 52.45895721 25.4375 50.6875 C25.33308594 49.70136719 25.22867188 48.71523438 25.12109375 47.69921875 C25 45 25 45 26 42 C23.69 42 21.38 42 19 42 Z M32 53 C31.67 53.99 31.34 54.98 31 56 C31.99 56 32.98 56 34 56 C33.67 55.01 33.34 54.02 33 53 C32.67 53 32.34 53 32 53 Z M12 55 C11.67 55.66 11.34 56.32 11 57 C11.66 57.66 12.32 58.32 13 59 C13.33 58.01 13.66 57.02 14 56 C13.34 55.67 12.68 55.34 12 55 Z M14 58 C13.67 58.66 13.34 59.32 13 60 C14.485 60.99 14.485 60.99 16 62 C16.99 61.67 17.98 61.34 19 61 C17.35 60.01 15.7 59.02 14 58 Z " fill="#112C45" transform="translate(34,6)"/>
<path d="M0 0 C0.66 0.33 1.32 0.66 2 1 C1.67 8.59 1.34 16.18 1 24 C12.22 24 23.44 24 35 24 C34.67 25.32 34.34 26.64 34 28 C29.05209823 28.0493651 24.10433917 28.08570269 19.15625 28.10986328 C17.47230534 28.11993317 15.78837821 28.13358988 14.10449219 28.15087891 C11.68680499 28.17508426 9.26934857 28.18647296 6.8515625 28.1953125 C6.0963028 28.20563507 5.34104309 28.21595764 4.56289673 28.22659302 C2.7070602 28.22699318 0.8518072 28.12222716 -1 28 C-3 26 -3 26 -3.24291992 23.90869141 C-3.23881104 23.06483887 -3.23470215 22.22098633 -3.23046875 21.3515625 C-3.22853516 20.42859375 -3.22660156 19.505625 -3.22460938 18.5546875 C-3.21236328 17.58789062 -3.20011719 16.62109375 -3.1875 15.625 C-3.18685547 14.6659375 -3.18621094 13.706875 -3.18554688 12.71875 C-3.13237393 4.23471139 -3.13237393 4.23471139 -2 1 C-1.34 0.67 -0.68 0.34 0 0 Z " fill="#0D2133" transform="translate(8,45)"/>
<path d="M0 0 C2.52666076 0.51959556 3.35490939 1.38589453 4.9375 3.3984375 C6.86002198 7.32564053 8.69499539 12.0333546 8.9375 16.3984375 C7.5 18.7109375 7.5 18.7109375 5.9375 20.3984375 C4.2875 20.0684375 2.6375 19.7384375 0.9375 19.3984375 C0.71523136 17.62929926 0.51016127 15.85799379 0.3125 14.0859375 C0.19648437 13.09980469 0.08046875 12.11367188 -0.0390625 11.09765625 C-0.0625 8.3984375 -0.0625 8.3984375 1.9375 5.3984375 C0.82375 5.4190625 -0.29 5.4396875 -1.4375 5.4609375 C-5.0625 5.3984375 -5.0625 5.3984375 -7.0625 4.3984375 C-7.3925 5.0584375 -7.7225 5.7184375 -8.0625 6.3984375 C-8.3925 5.4084375 -8.7225 4.4184375 -9.0625 3.3984375 C-6.66976663 -0.19066255 -3.95575266 0.04495173 0 0 Z " fill="#0F2337" transform="translate(58.0625,42.6015625)"/>
<path d="M0 0 C1.60517097 0.08733576 3.20921662 0.19552224 4.8125 0.3125 C6.15248047 0.39951172 6.15248047 0.39951172 7.51953125 0.48828125 C10.34379918 1.0709255 11.33487329 1.6710354 13 4 C13 4.99 13 5.98 13 7 C13.99 7.33 14.98 7.66 16 8 C12.35839192 9.21386936 11.66834531 8.6674695 8.3125 7.0625 C7.50425781 6.68222656 6.69601563 6.30195312 5.86328125 5.91015625 C4.94095703 5.45962891 4.94095703 5.45962891 4 5 C4 4.01 4 3.02 4 2 C2.68 1.34 1.36 0.68 0 0 Z " fill="#0D2236" transform="translate(33,33)"/>
<path d="M0 0 C0.66 0.33 1.32 0.66 2 1 C2 1.66 2 2.32 2 3 C-0.91708924 4.98362069 -2.12380904 4.9876191 -5.75 4.625 C-6.8225 4.41875 -7.895 4.2125 -9 4 C-9.33 4.66 -9.66 5.32 -10 6 C-10.33 5.01 -10.66 4.02 -11 3 C-8.20838707 -1.1874194 -4.55428654 -0.28916105 0 0 Z " fill="#0B1B31" transform="translate(60,43)"/>
<path d="M0 0 C0.99 0.495 0.99 0.495 2 1 C2 1.66 2 2.32 2 3 C2.66 3 3.32 3 4 3 C4 2.01 4 1.02 4 0 C4.66 0 5.32 0 6 0 C5.34 2.31 4.68 4.62 4 7 C3.34 7 2.68 7 2 7 C2.061875 8.423125 2.061875 8.423125 2.125 9.875 C2 13 2 13 0 15 C0 10.05 0 5.1 0 0 Z " fill="#0F2439" transform="translate(40,47)"/>
<path d="M0 0 C0.99 0.33 1.98 0.66 3 1 C3 1.66 3 2.32 3 3 C3.66 3.33 4.32 3.66 5 4 C0.23947038 5.97387813 -2.96488101 6.0070238 -8 5 C-8 4.67 -8 4.34 -8 4 C-7.05125 3.896875 -6.1025 3.79375 -5.125 3.6875 C-1.70892499 3.31460705 -1.70892499 3.31460705 0 0 Z " fill="#102335" transform="translate(59,67)"/>
<path d="M0 0 C3.4375 0.75 3.4375 0.75 5.4375 2.75 C4.7775 2.75 4.1175 2.75 3.4375 2.75 C3.4375 3.41 3.4375 4.07 3.4375 4.75 C2.4475 4.75 1.4575 4.75 0.4375 4.75 C0.4375 3.76 0.4375 2.77 0.4375 1.75 C-1.8725 1.75 -4.1825 1.75 -6.5625 1.75 C-3.5625 -0.25 -3.5625 -0.25 0 0 Z " fill="#0E2236" transform="translate(30.5625,5.25)"/>
<path d="M0 0 C2.97 0 5.94 0 9 0 C9 1.98 9 3.96 9 6 C8.34 6 7.68 6 7 6 C6.67 4.68 6.34 3.36 6 2 C3.03 1.505 3.03 1.505 0 1 C0 0.67 0 0.34 0 0 Z " fill="#143351" transform="translate(54,46)"/>
<path d="M0 0 C2.125 0.9375 2.125 0.9375 4 2 C2.75 3.5 2.75 3.5 1 5 C-0.32 5 -1.64 5 -3 5 C-2.625 3.0625 -2.625 3.0625 -2 1 C-1.34 0.67 -0.68 0.34 0 0 Z " fill="#14314A" transform="translate(65,65)"/>
<path d="M0 0 C0.33 0 0.66 0 1 0 C1 2.31 1 4.62 1 7 C0.01 7.33 -0.98 7.66 -2 8 C-2.125 5.125 -2.125 5.125 -2 2 C-1.34 1.34 -0.68 0.68 0 0 Z " fill="#10263C" transform="translate(17,15)"/>
<path d="M0 0 C0.66 0.66 1.32 1.32 2 2 C2.66 2.33 3.32 2.66 4 3 C4 3.66 4 4.32 4 5 C2 6.625 2 6.625 0 8 C-1.125 2.25 -1.125 2.25 0 0 Z " fill="#0F2535" transform="translate(66,41)"/>
<path d="M0 0 C0.99 0.33 1.98 0.66 3 1 C2.67 1.66 2.34 2.32 2 3 C1.34 2.01 0.68 1.02 0 0 Z " fill="#000000" transform="translate(34,12)"/>
<path d="M0 0 C0.66 0.33 1.32 0.66 2 1 C1.01 1 0.02 1 -1 1 C-0.67 0.67 -0.34 0.34 0 0 Z " fill="#000000" transform="translate(16,40)"/>
<path d="" fill="#000000" transform="translate(0,0)"/>
<path d="M0 0 C0.99 0.495 0.99 0.495 2 1 C1.01 1.495 1.01 1.495 0 2 C0 1.34 0 0.68 0 0 Z " fill="#000000" transform="translate(8,39)"/>
<path d="M0 0 C2 1 2 1 2 1 Z " fill="#000000" transform="translate(64,71)"/>
<path d="" fill="#000000" transform="translate(0,0)"/>
<path d="M0 0 C2 1 2 1 2 1 Z " fill="#000000" transform="translate(44,42)"/>
<path d="M0 0 C2 1 2 1 2 1 Z " fill="#000000" transform="translate(18,39)"/>
<path d="" fill="#000000" transform="translate(0,0)"/>
<path d="" fill="#000000" transform="translate(0,0)"/>
<path d="M0 0 C2 1 2 1 2 1 Z " fill="#000000" transform="translate(24,11)"/>
<path d="" fill="#000000" transform="translate(0,0)"/>
<path d="" fill="#000000" transform="translate(0,0)"/>
<path d="" fill="#000000" transform="translate(0,0)"/>
<path d="" fill="#000000" transform="translate(0,0)"/>
<path d="" fill="#000000" transform="translate(0,0)"/>
<path d="" fill="#000000" transform="translate(0,0)"/>
<path d="" fill="#000000" transform="translate(0,0)"/>
<path d="" fill="#000000" transform="translate(0,0)"/>
<path d="" fill="#000000" transform="translate(0,0)"/>
<path d="" fill="#000000" transform="translate(0,0)"/>
<path d="" fill="#000000" transform="translate(0,0)"/>
<path d="" fill="#000000" transform="translate(0,0)"/>
<path d="" fill="#000000" transform="translate(0,0)"/>
<path d="" fill="#000000" transform="translate(0,0)"/>
<path d="" fill="#000000" transform="translate(0,0)"/>
<path d="" fill="#000000" transform="translate(0,0)"/>
<path d="" fill="#000000" transform="translate(0,0)"/>
<path d="" fill="#000000" transform="translate(0,0)"/>
<path d="" fill="#000000" transform="translate(0,0)"/>
<path d="" fill="#000000" transform="translate(0,0)"/>
<path d="" fill="#000000" transform="translate(0,0)"/>
<path d="" fill="#000000" transform="translate(0,0)"/>
<path d="" fill="#000000" transform="translate(0,0)"/>
<path d="" fill="#000000" transform="translate(0,0)"/>
<path d="" fill="#000000" transform="translate(0,0)"/>
<path d="" fill="#000000" transform="translate(0,0)"/>
<path d="" fill="#000000" transform="translate(0,0)"/>
<path d="" fill="#000000" transform="translate(0,0)"/>
<path d="" fill="#000000" transform="translate(0,0)"/>
<path d="" fill="#000000" transform="translate(0,0)"/>
<path d="" fill="#000000" transform="translate(0,0)"/>
<path d="" fill="#000000" transform="translate(0,0)"/>
<path d="" fill="#000000" transform="translate(0,0)"/>
<path d="" fill="#000000" transform="translate(0,0)"/>
<path d="" fill="#000000" transform="translate(0,0)"/>
<path d="" fill="#000000" transform="translate(0,0)"/>
<path d="" fill="#000000" transform="translate(0,0)"/>
<path d="" fill="#000000" transform="translate(0,0)"/>
<path d="" fill="#000000" transform="translate(0,0)"/>
<path d="" fill="#000000" transform="translate(0,0)"/>
<path d="" fill="#000000" transform="translate(0,0)"/>
<path d="" fill="#000000" transform="translate(0,0)"/>
<path d="" fill="#000000" transform="translate(0,0)"/>
<path d="" fill="#000000" transform="translate(0,0)"/>
<path d="" fill="#000000" transform="translate(0,0)"/>
<path d="" fill="#000000" transform="translate(0,0)"/>
<path d="" fill="#000000" transform="translate(0,0)"/>
<path d="" fill="#000000" transform="translate(0,0)"/>
<path d="" fill="#000000" transform="translate(0,0)"/>
<path d="" fill="#000000" transform="translate(0,0)"/>
<path d="" fill="#000000" transform="translate(0,0)"/>
<path d="" fill="#000000" transform="translate(0,0)"/>
<path d="" fill="#000000" transform="translate(0,0)"/>
<path d="" fill="#000000" transform="translate(0,0)"/>
<path d="" fill="#000000" transform="translate(0,0)"/>
<path d="" fill="#000000" transform="translate(0,0)"/>
<path d="" fill="#000000" transform="translate(0,0)"/>
<path d="" fill="#000000" transform="translate(0,0)"/>
<path d="" fill="#000000" transform="translate(0,0)"/>
<path d="" fill="#000000" transform="translate(0,0)"/>
<path d="" fill="#000000" transform="translate(0,0)"/>
<path d="" fill="#000000" transform="translate(0,0)"/>
<path d="" fill="#000000" transform="translate(0,0)"/>
<path d="" fill="#000000" transform="translate(0,0)"/>
<path d="" fill="#000000" transform="translate(0,0)"/>
<path d="" fill="#000000" transform="translate(0,0)"/>
<path d="" fill="#000000" transform="translate(0,0)"/>
<path d="" fill="#000000" transform="translate(0,0)"/>
<path d="" fill="#000000" transform="translate(0,0)"/>
<path d="" fill="#000000" transform="translate(0,0)"/>
<path d="" fill="#000000" transform="translate(0,0)"/>
<path d="" fill="#000000" transform="translate(0,0)"/>
<path d="" fill="#000000" transform="translate(0,0)"/>
<path d="" fill="#000000" transform="translate(0,0)"/>
<path d="" fill="#000000" transform="translate(0,0)"/>
<path d="" fill="#000000" transform="translate(0,0)"/>
<path d="" fill="#000000" transform="translate(0,0)"/>
<path d="" fill="#000000" transform="translate(0,0)"/>
<path d="" fill="#000000" transform="translate(0,0)"/>
<path d="" fill="#000000" transform="translate(0,0)"/>
<path d="" fill="#000000" transform="translate(0,0)"/>
<path d="" fill="#000000" transform="translate(0,0)"/>
<path d="" fill="#000000" transform="translate(0,0)"/>
<path d="" fill="#000000" transform="translate(0,0)"/>
<path d="" fill="#000000" transform="translate(0,0)"/>
<path d="" fill="#000000" transform="translate(0,0)"/>
<path d="" fill="#000000" transform="translate(0,0)"/>
<path d="" fill="#000000" transform="translate(0,0)"/>
</svg>
