<?xml version="1.0" encoding="UTF-8"?>
<svg version="1.1" xmlns="http://www.w3.org/2000/svg" width="162" height="68">
<path d="M0 0 C1.32 0 2.64 0 4 0 C4 0.66 4 1.32 4 2 C4.99 1.67 5.98 1.34 7 1 C7 1.66 7 2.32 7 3 C7.5775 2.79375 8.155 2.5875 8.75 2.375 C11.54370469 1.90938255 12.58657838 2.63239442 15 4 C15.66 4 16.32 4 17 4 C17 4.66 17 5.32 17 6 C17.99 5.67 18.98 5.34 20 5 C20 5.66 20 6.32 20 7 C20.99 6.67 21.98 6.34 23 6 C23 6.66 23 7.32 23 8 C23.99 7.67 24.98 7.34 26 7 C26 7.66 26 8.32 26 9 C26.86625 8.7215625 26.86625 8.7215625 27.75 8.4375 C30.20692525 7.95976454 31.64397534 8.24270636 34 9 C34.33 7.68 34.66 6.36 35 5 C35.7425 4.87625 36.485 4.7525 37.25 4.625 C39.94301062 4.12760666 39.94301062 4.12760666 42 3 C46.09315056 0.95342472 49.6327676 0.62087398 54 2 C55 3 56 4 57 5 C58.65919896 5.36871088 60.32774271 5.69595322 62 6 C68.68211068 8.36422136 68.68211068 8.36422136 70 11 C71.92469088 11.39368517 71.92469088 11.39368517 74.1875 11.5 C84.48744129 12.20186993 94.17246453 17.9878296 103.34204102 22.35400391 C105.32152103 23.28427979 107.31099685 24.19357757 109.30981445 25.08154297 C112.20901591 26.37278195 115.06668103 27.73201086 117.92578125 29.109375 C118.82049637 29.49019226 119.71521149 29.87100952 120.63703918 30.2633667 C123.35650108 31.63040763 125.06658505 32.63545704 127 35 C128.05114698 39.70048416 128.16859508 44.19867072 128 49 C111.92702906 49.80955993 95.85361879 50.60966008 79.77962971 51.39872074 C72.31501664 51.76537064 64.85057616 52.13503162 57.38647461 52.51196289 C50.87536826 52.8407608 44.36400218 53.16372413 37.85226983 53.47989076 C34.40928031 53.64725826 30.96648226 53.81740375 27.52398109 53.99455452 C23.66646602 54.19158653 19.80857432 54.37830295 15.95043945 54.56274414 C14.26728386 54.6522937 14.26728386 54.6522937 12.55012512 54.74365234 C4.95121681 55.09254019 -2.43145774 54.7188954 -10 54 C-11.37082607 53.89110734 -12.74188194 53.78501197 -14.11328125 53.68359375 C-16.27994792 53.51692708 -18.44661458 53.35026042 -20.61328125 53.18359375 C-21.79470703 53.09271484 -21.79470703 53.09271484 -23 53 C-23 51.35 -23 49.7 -23 48 C-25.31 48 -27.62 48 -30 48 C-30 42.39 -30 36.78 -30 31 C-28.02 30.34 -26.04 29.68 -24 29 C-22.89583333 27.05208333 -22.89583333 27.05208333 -22 25 C-16.06891277 21.13839285 -9.10832122 18 -2 18 C-1.67 17.34 -1.34 16.68 -1 16 C5.0095805 16.40634174 10.29033931 17.01403107 16 19 C17.49646274 19.19590058 18.997257 19.36020995 20.5 19.5 C24.25894055 19.85142015 27.41913628 20.78098256 31 22 C32.32971682 22.19341336 33.66375673 22.35854514 35 22.5 C38.54702579 22.87834942 41.63085523 23.80208186 45 25 C46.66306572 25.35085797 48.33019073 25.68278413 50 26 C51.53575625 26.31228429 53.07131468 26.62554277 54.60668945 26.93969727 C55.48722488 27.1198085 56.36776031 27.29991974 57.27497864 27.48548889 C58.2116185 27.67719162 59.14825836 27.86889435 60.11328125 28.06640625 C61.56760811 28.36393044 61.56760811 28.36393044 63.05131531 28.66746521 C66.13839789 29.29904081 69.22544935 29.93076838 72.3125 30.5625 C74.40950316 30.99154649 76.50650834 31.42058306 78.60351562 31.84960938 C83.73570061 32.89962464 88.86786007 33.94976457 94 35 C94 34.34 94 33.68 94 33 C92.02 33 90.04 33 88 33 C88 32.34 88 31.68 88 31 C85.69 31 83.38 31 81 31 C81 30.34 81 29.68 81 29 C77.37 28.67 73.74 28.34 70 28 C70 27.34 70 26.68 70 26 C69.0925 26.04125 68.185 26.0825 67.25 26.125 C64.02515524 26.00096751 62.75373941 25.46866102 60 24 C58.68 24 57.36 24 56 24 C56 23.34 56 22.68 56 22 C52.37 21.67 48.74 21.34 45 21 C45 20.34 45 19.68 45 19 C42.69 19 40.38 19 38 19 C38 18.34 38 17.68 38 17 C35.69 17 33.38 17 31 17 C31 16.34 31 15.68 31 15 C25.01314152 13.73638028 19.08233706 12.67581523 13 12 C13 11.34 13 10.68 13 10 C10.69 10 8.38 10 6 10 C6 9.34 6 8.68 6 8 C3.525 7.505 3.525 7.505 1 7 C0.67 7.66 0.34 8.32 0 9 C-0.66 8.67 -1.32 8.34 -2 8 C-2.125 5.125 -2.125 5.125 -2 2 C-1.34 1.34 -0.68 0.68 0 0 Z M35 9 C35.99 10.485 35.99 10.485 37 12 C37.33 11.01 37.66 10.02 38 9 C37.01 9 36.02 9 35 9 Z M40 9 C39.34 9.66 38.68 10.32 38 11 C38.33 11.66 38.66 12.32 39 13 C40.32 12.34 41.64 11.68 43 11 C42.01 10.34 41.02 9.68 40 9 Z M57 10 C56.67 10.66 56.34 11.32 56 12 C56.99 11.67 57.98 11.34 59 11 C58.34 10.67 57.68 10.34 57 10 Z M42 12 C42 12.66 42 13.32 42 14 C42.66 13.67 43.32 13.34 44 13 C43.34 12.67 42.68 12.34 42 12 Z M45 12 C45 12.99 45 13.98 45 15 C45.66 14.67 46.32 14.34 47 14 C46.34 13.34 45.68 12.68 45 12 Z M62 12 C61.67 12.66 61.34 13.32 61 14 C61.66 14 62.32 14 63 14 C62.67 13.34 62.34 12.68 62 12 Z M47 13 C47.33 13.99 47.66 14.98 48 16 C48.66 15.67 49.32 15.34 50 15 C49.67 14.34 49.34 13.68 49 13 C48.34 13 47.68 13 47 13 Z M64 13 C64.33 13.66 64.66 14.32 65 15 C65.33 14.34 65.66 13.68 66 13 C65.34 13 64.68 13 64 13 Z M67 14 C67 14.66 67 15.32 67 16 C67.99 16.33 68.98 16.66 70 17 C70.33 16.34 70.66 15.68 71 15 C69.68 14.67 68.36 14.34 67 14 Z M71 16 C73.3500189 18.72107452 75.55674975 19.96702492 79 21 C79.99 20.67 80.98 20.34 82 20 C80.5437455 19.32880451 79.08492133 18.66318193 77.625 18 C76.81289062 17.62875 76.00078125 17.2575 75.1640625 16.875 C73.08001567 15.87504987 73.08001567 15.87504987 71 16 Z M59 17 C58.67 17.66 58.34 18.32 58 19 C58.99 18.67 59.98 18.34 61 18 C60.34 17.67 59.68 17.34 59 17 Z M62 18 C61.67 18.66 61.34 19.32 61 20 C61.66 20 62.32 20 63 20 C62.67 19.34 62.34 18.68 62 18 Z M65 19 C64.67 19.66 64.34 20.32 64 21 C64.66 21 65.32 21 66 21 C65.67 20.34 65.34 19.68 65 19 Z M68 20 C67.67 20.66 67.34 21.32 67 22 C68.60064843 22.53154742 70.20568874 23.04988353 71.8125 23.5625 C72.70582031 23.85253906 73.59914063 24.14257812 74.51953125 24.44140625 C77.11215139 25.24979556 77.11215139 25.24979556 80 24 C76.04 22.68 72.08 21.36 68 20 Z M99 43 C99 43.33 99 43.66 99 44 C100.98 44 102.96 44 105 44 C105 43.67 105 43.34 105 43 C103.02 43 101.04 43 99 43 Z M95 46 C95 46.33 95 46.66 95 47 C97.97 47 100.94 47 104 47 C104 46.67 104 46.34 104 46 C101.03 46 98.06 46 95 46 Z " fill="#808184" transform="translate(30,8)"/>
<path d="M0 0 C1.32 0 2.64 0 4 0 C4 0.66 4 1.32 4 2 C4.99 1.67 5.98 1.34 7 1 C7 1.66 7 2.32 7 3 C7.5775 2.79375 8.155 2.5875 8.75 2.375 C11.54370469 1.90938255 12.58657838 2.63239442 15 4 C15.66 4 16.32 4 17 4 C17 4.66 17 5.32 17 6 C17.99 5.67 18.98 5.34 20 5 C20 5.66 20 6.32 20 7 C20.99 6.67 21.98 6.34 23 6 C23 6.66 23 7.32 23 8 C23.99 7.67 24.98 7.34 26 7 C26 7.66 26 8.32 26 9 C26.86625 8.7215625 26.86625 8.7215625 27.75 8.4375 C30.20692525 7.95976454 31.64397534 8.24270636 34 9 C34.33 7.68 34.66 6.36 35 5 C35.7425 4.87625 36.485 4.7525 37.25 4.625 C39.94301062 4.12760666 39.94301062 4.12760666 42 3 C46.09315056 0.95342472 49.6327676 0.62087398 54 2 C55 3 56 4 57 5 C58.65919896 5.36871088 60.32774271 5.69595322 62 6 C68.68211068 8.36422136 68.68211068 8.36422136 70 11 C71.92469088 11.39368517 71.92469088 11.39368517 74.1875 11.5 C84.48744129 12.20186993 94.17246453 17.9878296 103.34204102 22.35400391 C105.32152103 23.28427979 107.31099685 24.19357757 109.30981445 25.08154297 C125.5917357 32.33314369 125.5917357 32.33314369 127.98431396 36.86401367 C129.09344508 40.9789989 128.78917204 44.86129844 128 49 C125.03 49 122.06 49 119 49 C119 48.67 119 48.34 119 48 C114.05 47.67 109.1 47.34 104 47 C104 46.67 104 46.34 104 46 C111.26 45.67 118.52 45.34 126 45 C125.67 44.67 125.34 44.34 125 44 C123.47480724 44.08937803 121.95318071 44.24537146 120.4375 44.4375 C119.61121094 44.53933594 118.78492188 44.64117187 117.93359375 44.74609375 C117.29550781 44.82988281 116.65742188 44.91367187 116 45 C116 44.34 116 43.68 116 43 C110.65824055 41.83874795 106.64184449 42.26469525 101.33203125 43.52734375 C99 44 99 44 95 44 C95 43.34 95 42.68 95 42 C95.99 41.67 96.98 41.34 98 41 C98 40.34 98 39.68 98 39 C96.515 38.505 96.515 38.505 95 38 C94.67 36.35 94.34 34.7 94 33 C92.02 33 90.04 33 88 33 C88 32.34 88 31.68 88 31 C85.69 31 83.38 31 81 31 C81 30.34 81 29.68 81 29 C77.37 28.67 73.74 28.34 70 28 C70 27.34 70 26.68 70 26 C69.0925 26.04125 68.185 26.0825 67.25 26.125 C64.02515524 26.00096751 62.75373941 25.46866102 60 24 C58.68 24 57.36 24 56 24 C56 23.34 56 22.68 56 22 C52.37 21.67 48.74 21.34 45 21 C45 20.34 45 19.68 45 19 C42.69 19 40.38 19 38 19 C38 18.34 38 17.68 38 17 C35.69 17 33.38 17 31 17 C31 16.34 31 15.68 31 15 C25.01314152 13.73638028 19.08233706 12.67581523 13 12 C13 11.34 13 10.68 13 10 C10.69 10 8.38 10 6 10 C6 9.34 6 8.68 6 8 C4.35 7.67 2.7 7.34 1 7 C0.67 7.66 0.34 8.32 0 9 C-0.66 8.67 -1.32 8.34 -2 8 C-2.125 5.125 -2.125 5.125 -2 2 C-1.34 1.34 -0.68 0.68 0 0 Z M35 9 C35.99 10.485 35.99 10.485 37 12 C37.33 11.01 37.66 10.02 38 9 C37.01 9 36.02 9 35 9 Z M40 9 C39.34 9.66 38.68 10.32 38 11 C38.33 11.66 38.66 12.32 39 13 C40.32 12.34 41.64 11.68 43 11 C42.01 10.34 41.02 9.68 40 9 Z M57 10 C56.67 10.66 56.34 11.32 56 12 C56.99 11.67 57.98 11.34 59 11 C58.34 10.67 57.68 10.34 57 10 Z M42 12 C42 12.66 42 13.32 42 14 C42.66 13.67 43.32 13.34 44 13 C43.34 12.67 42.68 12.34 42 12 Z M45 12 C45 12.99 45 13.98 45 15 C45.66 14.67 46.32 14.34 47 14 C46.34 13.34 45.68 12.68 45 12 Z M62 12 C61.67 12.66 61.34 13.32 61 14 C61.66 14 62.32 14 63 14 C62.67 13.34 62.34 12.68 62 12 Z M47 13 C47.33 13.99 47.66 14.98 48 16 C48.66 15.67 49.32 15.34 50 15 C49.67 14.34 49.34 13.68 49 13 C48.34 13 47.68 13 47 13 Z M64 13 C64.33 13.66 64.66 14.32 65 15 C65.33 14.34 65.66 13.68 66 13 C65.34 13 64.68 13 64 13 Z M67 14 C67 14.66 67 15.32 67 16 C67.99 16.33 68.98 16.66 70 17 C70.33 16.34 70.66 15.68 71 15 C69.68 14.67 68.36 14.34 67 14 Z M71 16 C73.3500189 18.72107452 75.55674975 19.96702492 79 21 C79.99 20.67 80.98 20.34 82 20 C80.5437455 19.32880451 79.08492133 18.66318193 77.625 18 C76.81289062 17.62875 76.00078125 17.2575 75.1640625 16.875 C73.08001567 15.87504987 73.08001567 15.87504987 71 16 Z M59 17 C58.67 17.66 58.34 18.32 58 19 C58.99 18.67 59.98 18.34 61 18 C60.34 17.67 59.68 17.34 59 17 Z M62 18 C61.67 18.66 61.34 19.32 61 20 C61.66 20 62.32 20 63 20 C62.67 19.34 62.34 18.68 62 18 Z M65 19 C64.67 19.66 64.34 20.32 64 21 C64.66 21 65.32 21 66 21 C65.67 20.34 65.34 19.68 65 19 Z M68 20 C67.67 20.66 67.34 21.32 67 22 C68.60064843 22.53154742 70.20568874 23.04988353 71.8125 23.5625 C72.70582031 23.85253906 73.59914063 24.14257812 74.51953125 24.44140625 C77.11215139 25.24979556 77.11215139 25.24979556 80 24 C76.04 22.68 72.08 21.36 68 20 Z " fill="#9E9FA1" transform="translate(30,8)"/>
<path d="M0 0 C0.33 0 0.66 0 1 0 C1 12.54 1 25.08 1 38 C2.32 38.33 3.64 38.66 5 39 C3.10416667 38.85416667 1.20833333 38.70833333 -0.6875 38.5625 C-1.86054688 38.47226562 -3.03359375 38.38203125 -4.2421875 38.2890625 C-9.03255208 37.92057292 -13.82291667 37.55208333 -18.61328125 37.18359375 C-19.79470703 37.09271484 -19.79470703 37.09271484 -21 37 C-21 35.35 -21 33.7 -21 32 C-23.31 32 -25.62 32 -28 32 C-28 26.39 -28 20.78 -28 15 C-26.02 14.34 -24.04 13.68 -22 13 C-20.89583333 11.05208333 -20.89583333 11.05208333 -20 9 C-14.06891277 5.13839285 -7.10832122 2 0 2 C0 1.34 0 0.68 0 0 Z " fill="#828386" transform="translate(28,24)"/>
<path d="M0 0 C17.19076482 5.5227024 17.19076482 5.5227024 22 10 C23.66699647 14.81003316 23.62023986 18.98169571 23 24 C20.03 24 17.06 24 14 24 C14 23.67 14 23.34 14 23 C9.05 22.67 4.1 22.34 -1 22 C-1 21.67 -1 21.34 -1 21 C6.26 20.67 13.52 20.34 21 20 C20.67 19.67 20.34 19.34 20 19 C18.47480724 19.08937803 16.95318071 19.24537146 15.4375 19.4375 C14.61121094 19.53933594 13.78492188 19.64117187 12.93359375 19.74609375 C11.97646484 19.87177734 11.97646484 19.87177734 11 20 C11 19.34 11 18.68 11 18 C5.65824055 16.83874795 1.64184449 17.26469525 -3.66796875 18.52734375 C-6 19 -6 19 -10 19 C-10 18.34 -10 17.68 -10 17 C-9.01 16.67 -8.02 16.34 -7 16 C-7 15.34 -7 14.68 -7 14 C-7.99 13.67 -8.98 13.34 -10 13 C-10.33 11.35 -10.66 9.7 -11 8 C-12.98 8 -14.96 8 -17 8 C-17 7.34 -17 6.68 -17 6 C-17.99 5.67 -18.98 5.34 -20 5 C-18.8553125 5.061875 -18.8553125 5.061875 -17.6875 5.125 C-14.77281584 5.22080824 -14.77281584 5.22080824 -12 3 C-12 3.66 -12 4.32 -12 5 C-11.01 4.67 -10.02 4.34 -9 4 C-7.68 4 -6.36 4 -5 4 C-2.83700789 3.77242269 -2.83700789 3.77242269 -1 3 C-0.67 2.01 -0.34 1.02 0 0 Z " fill="#98999B" transform="translate(135,33)"/>
<path d="M0 0 C5.02450337 -0.28987519 7.12493755 -0.07725548 11 3 C12.48650777 3.53878999 13.98883392 4.0348365 15.5 4.5 C18.8232397 5.55490997 21.52936302 6.42641981 24 9 C24.75 11.1875 24.75 11.1875 25 13 C24.01 13 23.02 13 22 13 C22 13.66 22 14.32 22 15 C21.34 15 20.68 15 20 15 C19.67 14.67 19.34 14.34 19 14 C16.88214887 12.88214887 16.88214887 12.88214887 14 12 C11.96607161 12.78940358 11.96607161 12.78940358 9.9375 14 C7.83984375 15.1875 7.83984375 15.1875 6 16 C5.34 15.67 4.68 15.34 4 15 C5.65 14.34 7.3 13.68 9 13 C9 12.01 9 11.02 9 10 C5.38026598 8.68373308 2.90432869 8 -1 8 C-1.33 7.34 -1.66 6.68 -2 6 C-1.34 6 -0.68 6 0 6 C1.33333333 3 1.33333333 3 0 0 Z M12 9 C11.67 9.66 11.34 10.32 11 11 C11.99 10.67 12.98 10.34 14 10 C13.34 9.67 12.68 9.34 12 9 Z " fill="#9B9C9E" transform="translate(75,9)"/>
<path d="M0 0 C0.66 0.66 1.32 1.32 2 2 C2.66 1.67 3.32 1.34 4 1 C4.33 1.33 4.66 1.66 5 2 C5.66 2 6.32 2 7 2 C7.33 2.33 7.66 2.66 8 3 C10.73295801 5.2488682 13.0448118 6.52695877 16.44140625 7.5 C17.27220703 7.7475 18.10300781 7.995 18.95898438 8.25 C20.6982687 8.75103914 22.43785388 9.25103502 24.17773438 9.75 C25.00724609 9.9975 25.83675781 10.245 26.69140625 10.5 C27.44623291 10.7165625 28.20105957 10.933125 28.97875977 11.15625 C31 12 31 12 34 15 C30.37 15 26.74 15 23 15 C23 14.34 23 13.68 23 13 C17.555 12.505 17.555 12.505 12 12 C12 11.34 12 10.68 12 10 C11.0925 10.04125 10.185 10.0825 9.25 10.125 C6.02515524 10.00096751 4.75373941 9.46866102 2 8 C0.68 8 -0.64 8 -2 8 C-2 7.34 -2 6.68 -2 6 C-2.99 5.67 -3.98 5.34 -5 5 C-4.34 5 -3.68 5 -3 5 C-2.87625 4.360625 -2.7525 3.72125 -2.625 3.0625 C-2.41875 2.381875 -2.2125 1.70125 -2 1 C-1.34 0.67 -0.68 0.34 0 0 Z " fill="#B0B1B2" transform="translate(88,24)"/>
<path d="M0 0 C2.6875 0.875 2.6875 0.875 5 2 C4.01 2.495 4.01 2.495 3 3 C3 3.66 3 4.32 3 5 C2.01 5.33 1.02 5.66 0 6 C2.20234452 6.57097821 4.3889298 7.07408187 6.625 7.5 C9 8 9 8 11 9 C11 9.99 11 10.98 11 12 C10.195625 12.144375 9.39125 12.28875 8.5625 12.4375 C6.07896294 12.74135249 6.07896294 12.74135249 5 14 C5 14.99 5 15.98 5 17 C4.67 17.66 4.34 18.32 4 19 C3.34 19 2.68 19 2 19 C2 18.34 2 17.68 2 17 C-0.31 17 -2.62 17 -5 17 C-5 16.01 -5 15.02 -5 14 C-2.5 12.3125 -2.5 12.3125 0 11 C-2.52956528 7.9083091 -5.22454612 7.09068668 -9 6 C-8.67 5.01 -8.34 4.02 -8 3 C-7.236875 2.87625 -6.47375 2.7525 -5.6875 2.625 C-2.79732864 2.11897208 -2.79732864 2.11897208 0 0 Z M2 10 C2 10.99 2 11.98 2 13 C2.66 12.67 3.32 12.34 4 12 C3.34 11.34 2.68 10.68 2 10 Z " fill="#A1A2A4" transform="translate(73,10)"/>
<path d="M0 0 C0.33 0 0.66 0 1 0 C1 12.54 1 25.08 1 38 C2.32 38.33 3.64 38.66 5 39 C0.71 38.67 -3.58 38.34 -8 38 C-8 37.67 -8 37.34 -8 37 C-5.69 37 -3.38 37 -1 37 C-1.495 19.675 -1.495 19.675 -2 2 C-1.34 2 -0.68 2 0 2 C0 1.34 0 0.68 0 0 Z " fill="#EDEDED" transform="translate(28,24)"/>
<path d="M0 0 C4.62 0.99 9.24 1.98 14 3 C14.33 5.31 14.66 7.62 15 10 C12.03 10 9.06 10 6 10 C6 9.67 6 9.34 6 9 C1.05 8.67 -3.9 8.34 -9 8 C-9 7.67 -9 7.34 -9 7 C-1.74 6.67 5.52 6.34 13 6 C12.67 5.67 12.34 5.34 12 5 C10.47480724 5.08937803 8.95318071 5.24537146 7.4375 5.4375 C6.61121094 5.53933594 5.78492188 5.64117187 4.93359375 5.74609375 C4.29550781 5.82988281 3.65742188 5.91367187 3 6 C3 5.34 3 4.68 3 4 C1.35 3.67 -0.3 3.34 -2 3 C-1.34 2.01 -0.68 1.02 0 0 Z " fill="#D2D2D3" transform="translate(143,47)"/>
<path d="M0 0 C0 0.66 0 1.32 0 2 C0.8971875 1.6596875 0.8971875 1.6596875 1.8125 1.3125 C2.8953125 1.1578125 2.8953125 1.1578125 4 1 C5.63671875 2.48046875 5.63671875 2.48046875 7 4 C4.58424393 4.50478485 2.16755639 5.00397642 -0.25 5.5 C-0.93191406 5.64308594 -1.61382812 5.78617188 -2.31640625 5.93359375 C-5.64633121 6.61251049 -8.58332551 7 -12 7 C-12 6.34 -12 5.68 -12 5 C-11.01 4.67 -10.02 4.34 -9 4 C-9 3.34 -9 2.68 -9 2 C-9.99 1.67 -10.98 1.34 -12 1 C-7.67265609 -1.22923777 -4.71599818 -0.92470553 0 0 Z " fill="#ADAEAF" transform="translate(137,45)"/>
<path d="M0 0 C1.6792238 0.63437344 3.35008418 1.29289322 5 2 C4.67 2.99 4.34 3.98 4 5 C0.7 4.34 -2.6 3.68 -6 3 C-6.33 4.32 -6.66 5.64 -7 7 C-12.5 7.36666667 -12.5 7.36666667 -14.875 5.625 C-16 4 -16 4 -16 2 C-13.03 2 -10.06 2 -7 2 C-7 1.34 -7 0.68 -7 0 C-4.26965677 -1.36517162 -2.92769462 -0.74894513 0 0 Z " fill="#8D8D90" transform="translate(92,22)"/>
<path d="M0 0 C5.956037 -0.10269029 11.29045921 0.09681974 17 2 C19.63804589 1.60602665 19.63804589 1.60602665 22 1 C22 1.66 22 2.32 22 3 C18.52334905 4.06888524 15.32862522 4.11475767 11.703125 4.09765625 C10.49785156 4.09443359 9.29257813 4.09121094 8.05078125 4.08789062 C6.79652344 4.07951172 5.54226562 4.07113281 4.25 4.0625 C2.98027344 4.05798828 1.71054688 4.05347656 0.40234375 4.04882812 C-2.73181836 4.03704556 -5.86588541 4.02059416 -9 4 C-5.99112219 2.41841038 -3.36327963 1.56054661 0 1 C0 0.67 0 0.34 0 0 Z " fill="#898A8D" transform="translate(134,50)"/>
<path d="M0 0 C6.32258065 -0.36476427 6.32258065 -0.36476427 9.4375 1.3125 C11 3 11 3 11 6 C5.375 9 5.375 9 2 9 C-0.1875 8 -0.1875 8 -2 7 C-1.2265625 6.38125 -1.2265625 6.38125 -0.4375 5.75 C0.2740625 4.88375 0.2740625 4.88375 1 4 C0.77242269 1.83700789 0.77242269 1.83700789 0 0 Z " fill="#B8B9BA" transform="translate(75,9)"/>
<path d="M0 0 C7.32145177 0.47235173 15.59043968 1.59043968 21 7 C17.37 7 13.74 7 10 7 C10 6.34 10 5.68 10 5 C9.36191406 4.89042969 8.72382812 4.78085937 8.06640625 4.66796875 C7.24011719 4.50941406 6.41382812 4.35085937 5.5625 4.1875 C4.73878906 4.03667969 3.91507812 3.88585938 3.06640625 3.73046875 C2.38449219 3.48941406 1.70257813 3.24835937 1 3 C0.67 2.01 0.34 1.02 0 0 Z " fill="#97989A" transform="translate(101,32)"/>
<path d="M0 0 C3.66172475 0.62678171 6.8818995 1.64451846 10.3125 3.0625 C11.19550781 3.42472656 12.07851562 3.78695313 12.98828125 4.16015625 C13.65214844 4.43730469 14.31601563 4.71445312 15 5 C15 5.99 15 6.98 15 8 C9.03435204 7.49228528 4.36190101 5.61407872 -1 3 C-0.67 2.01 -0.34 1.02 0 0 Z " fill="#909093" transform="translate(97,24)"/>
<path d="M0 0 C7.24705882 2.14117647 7.24705882 2.14117647 10 5 C10.25 7.6875 10.25 7.6875 10 10 C5.545 9.01 5.545 9.01 1 8 C0.67 5.36 0.34 2.72 0 0 Z " fill="#B3B3B5" transform="translate(147,39)"/>
<path d="M0 0 C1.98 0.66 3.96 1.32 6 2 C6.33 3.65 6.66 5.3 7 7 C6.01 7 5.02 7 4 7 C4 7.66 4 8.32 4 9 C3.34 9 2.68 9 2 9 C1.67 8.67 1.34 8.34 1 8 C-0.9254644 6.8509288 -0.9254644 6.8509288 -3 7 C-1.125 1.125 -1.125 1.125 0 0 Z " fill="#A0A1A3" transform="translate(93,15)"/>
<path d="M0 0 C0 1.65 0 3.3 0 5 C-1.32 5 -2.64 5 -4 5 C-2.68 5.33 -1.36 5.66 0 6 C0 6.66 0 7.32 0 8 C-2.64 7.67 -5.28 7.34 -8 7 C-8 5.35 -8 3.7 -8 2 C-5.09399739 0.74335022 -3.20395416 0 0 0 Z " fill="#AEAFB0" transform="translate(8,46)"/>
<path d="M0 0 C2.64 0.33 5.28 0.66 8 1 C8 1.66 8 2.32 8 3 C9.65 3 11.3 3 13 3 C13 3.66 13 4.32 13 5 C7.28728072 6.6112798 3.31329355 5.08989546 -2 3 C-1.34 2.67 -0.68 2.34 0 2 C0 1.34 0 0.68 0 0 Z " fill="#9D9EA0" transform="translate(112,30)"/>
<path d="M0 0 C0.99 0.99 1.98 1.98 3 3 C2.67 3.66 2.34 4.32 2 5 C1.01 5.33 0.02 5.66 -1 6 C-1 6.99 -1 7.98 -1 9 C-2.32 9 -3.64 9 -5 9 C-5 6.69 -5 4.38 -5 2 C-3.35 1.34 -1.7 0.68 0 0 Z " fill="#C0C0C2" transform="translate(5,37)"/>
<path d="M0 0 C0.66 0.33 1.32 0.66 2 1 C2 1.99 2 2.98 2 4 C0.35 4.33 -1.3 4.66 -3 5 C-3 4.34 -3 3.68 -3 3 C-3.99 3.33 -4.98 3.66 -6 4 C-6 3.34 -6 2.68 -6 2 C-6.66 2 -7.32 2 -8 2 C-8 1.34 -8 0.68 -8 0 C-4.67803635 -1.10732122 -3.31749961 -0.85064093 0 0 Z " fill="#8F9093" transform="translate(82,18)"/>
<path d="M0 0 C0.66 0.33 1.32 0.66 2 1 C2 2.32 2 3.64 2 5 C0.35 4.67 -1.3 4.34 -3 4 C-3 4.66 -3 5.32 -3 6 C-5.3431213 5.74438677 -7.67843403 5.40729228 -10 5 C-10.33 4.34 -10.66 3.68 -11 3 C-8.69 3.33 -6.38 3.66 -4 4 C-3.67 3.01 -3.34 2.02 -3 1 C-2.01 0.67 -1.02 0.34 0 0 Z " fill="#88898B" transform="translate(133,32)"/>
<path d="M0 0 C-0.99 0.495 -0.99 0.495 -2 1 C-2 1.66 -2 2.32 -2 3 C-7.75 4.125 -7.75 4.125 -10 3 C-9 0 -9 0 -7.25 -1.3125 C-4.22513532 -2.23676421 -2.76271632 -1.38135816 0 0 Z " fill="#959698" transform="translate(78,12)"/>
<path d="M0 0 C1.22589844 0.15275391 1.22589844 0.15275391 2.4765625 0.30859375 C3.41628906 0.43427734 3.41628906 0.43427734 4.375 0.5625 C3.385 0.8925 2.395 1.2225 1.375 1.5625 C1.705 2.5525 2.035 3.5425 2.375 4.5625 C1.385 5.0575 1.385 5.0575 0.375 5.5625 C0.375 4.9025 0.375 4.2425 0.375 3.5625 C-1.605 3.5625 -3.585 3.5625 -5.625 3.5625 C-5.955 2.5725 -6.285 1.5825 -6.625 0.5625 C-4.10446405 -0.69776798 -2.7707902 -0.35624445 0 0 Z " fill="#A2A2A5" transform="translate(99.625,30.4375)"/>
<path d="M0 0 C4.455 0.99 4.455 0.99 9 2 C9 2.99 9 3.98 9 5 C3.5 5.36666667 3.5 5.36666667 1.125 3.625 C0 2 0 2 0 0 Z " fill="#7C7D80" transform="translate(76,24)"/>
<path d="M0 0 C1.67299959 0.65061095 3.33859237 1.32033324 5 2 C5.7425 2.2475 6.485 2.495 7.25 2.75 C9 4 9 4 9.75 7.125 C9.87375 8.548125 9.87375 8.548125 10 10 C8 9 8 9 7.25 7 C6.09834868 4.63752715 6.09834868 4.63752715 2.875 4.25 C1.92625 4.1675 0.9775 4.085 0 4 C0 2.66666667 0 1.33333333 0 0 Z " fill="#C8C8C9" transform="translate(65,13)"/>
<path d="M0 0 C2.1640625 0.77734375 2.1640625 0.77734375 4.625 1.9375 C5.44226563 2.31777344 6.25953125 2.69804687 7.1015625 3.08984375 C7.72804688 3.39019531 8.35453125 3.69054687 9 4 C8.01 4.66 7.02 5.32 6 6 C3.95703125 5.5390625 3.95703125 5.5390625 1.8125 4.625 C0.73935547 4.18027344 0.73935547 4.18027344 -0.35546875 3.7265625 C-0.89816406 3.48679687 -1.44085938 3.24703125 -2 3 C-2 2.34 -2 1.68 -2 1 C-1.34 0.67 -0.68 0.34 0 0 Z " fill="#838587" transform="translate(119,28)"/>
<path d="M0 0 C4.75 0.75 4.75 0.75 7 3 C6.34 3.66 5.68 4.32 5 5 C2.4375 4.75 2.4375 4.75 0 4 C-0.33 3.34 -0.66 2.68 -1 2 C-0.67 1.34 -0.34 0.68 0 0 Z " fill="#999A9C" transform="translate(97,24)"/>
<path d="M0 0 C0.66 0.33 1.32 0.66 2 1 C2.66 1 3.32 1 4 1 C3 4 3 4 1.22265625 5.203125 C0.50980469 5.54859375 -0.20304687 5.8940625 -0.9375 6.25 C-2.00291016 6.78367187 -2.00291016 6.78367187 -3.08984375 7.328125 C-4.03537109 7.66070312 -4.03537109 7.66070312 -5 8 C-5.66 7.67 -6.32 7.34 -7 7 C-6.195625 6.7525 -5.39125 6.505 -4.5625 6.25 C-1.83364774 5.28621485 -1.83364774 5.28621485 -1.25 2.9375 C-1.1675 2.298125 -1.085 1.65875 -1 1 C-0.67 0.67 -0.34 0.34 0 0 Z " fill="#C4C5C6" transform="translate(86,17)"/>
<path d="M0 0 C2.64 0.33 5.28 0.66 8 1 C8 2.32 8 3.64 8 5 C3.545 4.01 3.545 4.01 -1 3 C-0.67 2.01 -0.34 1.02 0 0 Z " fill="#BEBFC0" transform="translate(149,44)"/>
<path d="M0 0 C1.32 0.66 2.64 1.32 4 2 C3 4 2 6 1 8 C0.34 7.67 -0.32 7.34 -1 7 C-1.66 7 -2.32 7 -3 7 C-1.125 1.125 -1.125 1.125 0 0 Z " fill="#C7C7C9" transform="translate(93,15)"/>
<path d="M0 0 C-0.33 1.32 -0.66 2.64 -1 4 C-2.32 4 -3.64 4 -5 4 C-5 3.34 -5 2.68 -5 2 C-5.99 1.67 -6.98 1.34 -8 1 C-3.375 -1.125 -3.375 -1.125 0 0 Z " fill="#B4B4B6" transform="translate(133,45)"/>
<path d="M0 0 C2.97 0.495 2.97 0.495 6 1 C5.01 1.495 5.01 1.495 4 2 C4.33 3.32 4.66 4.64 5 6 C4.01 5.67 3.02 5.34 2 5 C0.8125 2.4375 0.8125 2.4375 0 0 Z " fill="#98999B" transform="translate(123,39)"/>
<path d="M0 0 C0.33 0.66 0.66 1.32 1 2 C2.65 2 4.3 2 6 2 C6 2.66 6 3.32 6 4 C3.1875 4.625 3.1875 4.625 0 5 C-0.99 4.34 -1.98 3.68 -3 3 C-2.34 3 -1.68 3 -1 3 C-0.67 2.01 -0.34 1.02 0 0 Z " fill="#AFB0B1" transform="translate(119,31)"/>
<path d="M0 0 C0.66 0.33 1.32 0.66 2 1 C2 1.66 2 2.32 2 3 C-2.455 3.495 -2.455 3.495 -7 4 C-4.61426621 2.10786631 -2.92824652 0.97608217 0 0 Z " fill="#B6B6B8" transform="translate(153,49)"/>
<path d="M0 0 C0.99 0.33 1.98 0.66 3 1 C2.67 1.99 2.34 2.98 2 4 C2.66 4.33 3.32 4.66 4 5 C4 5.66 4 6.32 4 7 C2.68 7 1.36 7 0 7 C0 4.69 0 2.38 0 0 Z " fill="#B1B2B3" transform="translate(0,39)"/>
<path d="M0 0 C1.32 0.66 2.64 1.32 4 2 C2.71034824 3.37562854 1.37310707 4.70766393 0 6 C-0.66 6 -1.32 6 -2 6 C-1.34 4.02 -0.68 2.04 0 0 Z " fill="#BCBDBE" transform="translate(135,33)"/>
<path d="M0 0 C1.98 0 3.96 0 6 0 C6 0.99 6 1.98 6 3 C4.35 3 2.7 3 1 3 C0.67 2.01 0.34 1.02 0 0 Z " fill="#858688" transform="translate(101,32)"/>
<path d="" fill="#FFFFFF" transform="translate(0,0)"/>
<path d="" fill="#FFFFFF" transform="translate(0,0)"/>
<path d="" fill="#FFFFFF" transform="translate(0,0)"/>
<path d="" fill="#FFFFFF" transform="translate(0,0)"/>
<path d="" fill="#FFFFFF" transform="translate(0,0)"/>
<path d="" fill="#FFFFFF" transform="translate(0,0)"/>
<path d="" fill="#FFFFFF" transform="translate(0,0)"/>
<path d="" fill="#FFFFFF" transform="translate(0,0)"/>
<path d="" fill="#FFFFFF" transform="translate(0,0)"/>
<path d="" fill="#FFFFFF" transform="translate(0,0)"/>
<path d="" fill="#FFFFFF" transform="translate(0,0)"/>
<path d="" fill="#FFFFFF" transform="translate(0,0)"/>
<path d="" fill="#FFFFFF" transform="translate(0,0)"/>
<path d="" fill="#FFFFFF" transform="translate(0,0)"/>
<path d="" fill="#FFFFFF" transform="translate(0,0)"/>
<path d="" fill="#FFFFFF" transform="translate(0,0)"/>
<path d="" fill="#FFFFFF" transform="translate(0,0)"/>
<path d="" fill="#FFFFFF" transform="translate(0,0)"/>
<path d="" fill="#FFFFFF" transform="translate(0,0)"/>
<path d="" fill="#FFFFFF" transform="translate(0,0)"/>
<path d="" fill="#FFFFFF" transform="translate(0,0)"/>
<path d="" fill="#FFFFFF" transform="translate(0,0)"/>
<path d="" fill="#FFFFFF" transform="translate(0,0)"/>
<path d="" fill="#FFFFFF" transform="translate(0,0)"/>
</svg>
