<?xml version="1.0" encoding="UTF-8"?>
<svg version="1.1" xmlns="http://www.w3.org/2000/svg" width="69" height="69">
<path d="M0 0 C1.60095094 0.09731009 3.20124751 0.20587616 4.80078125 0.32421875 C5.98704102 0.39672852 5.98704102 0.39672852 7.19726562 0.47070312 C20.43589195 1.33432945 20.43589195 1.33432945 22.11328125 3.01171875 C23.00015625 2.99109375 23.88703125 2.97046875 24.80078125 2.94921875 C28.35240776 3.01623057 30.87010699 3.57868826 34.11328125 5.01171875 C35.03516586 7.77737257 35.23113347 9.39455577 35.2109375 12.2421875 C35.20771484 13.04462891 35.20449219 13.84707031 35.20117188 14.67382812 C35.18860352 15.92389648 35.18860352 15.92389648 35.17578125 17.19921875 C35.17126953 18.04419922 35.16675781 18.88917969 35.16210938 19.75976562 C35.15033528 21.8437803 35.13240015 23.92775852 35.11328125 26.01171875 C35.74234375 26.07230469 36.37140625 26.13289063 37.01953125 26.1953125 C39.71830512 26.4594997 42.41584049 26.7342677 45.11328125 27.01171875 C45.850625 27.08390625 46.58796875 27.15609375 47.34765625 27.23046875 C51.51307147 27.68252932 55.18268973 28.58241274 59.11328125 30.01171875 C61.09328125 30.50671875 61.09328125 30.50671875 63.11328125 31.01171875 C63.11328125 43.55171875 63.11328125 56.09171875 63.11328125 69.01171875 C40.34328125 69.01171875 17.57328125 69.01171875 -5.88671875 69.01171875 C-5.92796875 57.99796875 -5.96921875 46.98421875 -6.01171875 35.63671875 C-6.02992676 32.15705566 -6.04813477 28.67739258 -6.06689453 25.09228516 C-6.07273305 22.34928543 -6.07783012 19.60628398 -6.08203125 16.86328125 C-6.087258 16.14788177 -6.09248474 15.4324823 -6.09786987 14.69540405 C-6.11246281 12.59322819 -6.11453235 10.49137892 -6.11376953 8.38916016 C-6.11821075 7.20335358 -6.12265198 6.017547 -6.12722778 4.79580688 C-5.73016936 0.19953199 -4.51128029 0.01360185 0 0 Z M-1.88671875 4.01171875 C-2.21671875 24.14171875 -2.54671875 44.27171875 -2.88671875 65.01171875 C-0.1779254 66.36611543 2.12261393 66.07673326 5.11328125 66.01171875 C5.16226562 64.95210937 5.21125 63.8925 5.26171875 62.80078125 C5.33674834 61.41273378 5.4122961 60.02471424 5.48828125 58.63671875 C5.5346875 57.58871094 5.5346875 57.58871094 5.58203125 56.51953125 C5.88671875 51.23828125 5.88671875 51.23828125 8.11328125 49.01171875 C11.08203125 48.8515625 11.08203125 48.8515625 14.61328125 48.94921875 C19.02399823 49.23685491 19.02399823 49.23685491 23.11328125 48.01171875 C22.78328125 49.00171875 22.45328125 49.99171875 22.11328125 51.01171875 C22.20072133 53.59261135 22.3419662 56.12863353 22.55078125 58.69921875 C22.6290918 59.75206055 22.6290918 59.75206055 22.70898438 60.82617188 C22.8383599 62.55509929 22.97510656 64.2834723 23.11328125 66.01171875 C25.75328125 66.01171875 28.39328125 66.01171875 31.11328125 66.01171875 C31.11328125 47.20171875 31.11328125 28.39171875 31.11328125 9.01171875 C22.29202094 6.90753205 22.29202094 6.90753205 17.92578125 7.01171875 C15.11328125 7.01171875 15.11328125 7.01171875 11.86328125 6.07421875 C7.14811765 4.61975296 7.14811765 4.61975296 -1.88671875 4.01171875 Z M35.11328125 30.01171875 C35.11328125 41.89171875 35.11328125 53.77171875 35.11328125 66.01171875 C43.03328125 66.01171875 50.95328125 66.01171875 59.11328125 66.01171875 C60.54837346 63.14153434 60.22486631 60.67628152 60.2109375 57.47265625 C60.20771484 56.17070313 60.20449219 54.86875 60.20117188 53.52734375 C60.19281591 52.14713476 60.18435096 50.76692643 60.17578125 49.38671875 C60.17076626 47.99869949 60.16620335 46.61067853 60.16210938 45.22265625 C60.15029101 41.81896743 60.13381559 38.41536436 60.11328125 35.01171875 C55.22776327 33.55618878 50.36874362 32.38178055 45.36328125 31.38671875 C44.70457031 31.25265625 44.04585937 31.11859375 43.3671875 30.98046875 C40.558095 30.42206902 37.98564355 30.01171875 35.11328125 30.01171875 Z M9.11328125 52.01171875 C9.11328125 56.63171875 9.11328125 61.25171875 9.11328125 66.01171875 C12.41328125 65.68171875 15.71328125 65.35171875 19.11328125 65.01171875 C19.11328125 60.72171875 19.11328125 56.43171875 19.11328125 52.01171875 C15.81328125 52.01171875 12.51328125 52.01171875 9.11328125 52.01171875 Z " fill="#112A42" transform="translate(5.88671875,-0.01171875)"/>
<path d="M0 0 C0.33 0 0.66 0 1 0 C1 5.94 1 11.88 1 18 C2.65 18 4.3 18 6 18 C4.36587557 19.70840281 3.13093906 20.93453047 1 22 C1 33.88 1 45.76 1 58 C0.67 58 0.34 58 0 58 C0 46.12 0 34.24 0 22 C-0.66 22 -1.32 22 -2 22 C-2 20.68 -2 19.36 -2 18 C-1.34 18 -0.68 18 0 18 C0 12.06 0 6.12 0 0 Z " fill="#0A1E31" transform="translate(40,8)"/>
<path d="M0 0 C3.96 0 7.92 0 12 0 C12 1.65 12 3.3 12 5 C8.04 5 4.08 5 0 5 C0 3.35 0 1.7 0 0 Z " fill="#0D1C2C" transform="translate(7,22)"/>
<path d="M0 0 C0.66 0 1.32 0 2 0 C1.67 1.98 1.34 3.96 1 6 C0.67 6 0.34 6 0 6 C-0.33 9.96 -0.66 13.92 -1 18 C-4.3 18 -7.6 18 -11 18 C-11 17.67 -11 17.34 -11 17 C-8.03 17 -5.06 17 -2 17 C-2 12.71 -2 8.42 -2 4 C-4.97 4 -7.94 4 -11 4 C-11 3.67 -11 3.34 -11 3 C-10.28972656 2.86722656 -9.57945313 2.73445313 -8.84765625 2.59765625 C-7.92855469 2.42105469 -7.00945313 2.24445312 -6.0625 2.0625 C-4.68771484 1.80146484 -4.68771484 1.80146484 -3.28515625 1.53515625 C-1.04710156 1.22285012 -1.04710156 1.22285012 0 0 Z " fill="#091824" transform="translate(27,48)"/>
<path d="M0 0 C2.97 0.33 5.94 0.66 9 1 C9.66 2.65 10.32 4.3 11 6 C7.7 5.67 4.4 5.34 1 5 C0.67 3.35 0.34 1.7 0 0 Z " fill="#0E2539" transform="translate(22,30)"/>
<path d="M0 0 C2.97 0 5.94 0 9 0 C9.66 1.65 10.32 3.3 11 5 C7.7 4.67 4.4 4.34 1 4 C0.67 2.68 0.34 1.36 0 0 Z " fill="#0E263A" transform="translate(48,48)"/>
<path d="M0 0 C-0.66 1.65 -1.32 3.3 -2 5 C-3.11375 4.979375 -4.2275 4.95875 -5.375 4.9375 C-8.83215921 4.73619282 -8.83215921 4.73619282 -11 6 C-10.67 4.35 -10.34 2.7 -10 1 C-2.25 0 -2.25 0 0 0 Z " fill="#0F253A" transform="translate(59,39)"/>
<path d="M0 0 C1.670625 0.061875 1.670625 0.061875 3.375 0.125 C3.705 1.445 4.035 2.765 4.375 4.125 C1.58636993 5.51931504 -0.54578868 5.38160094 -3.625 5.125 C-4.285 4.135 -4.945 3.145 -5.625 2.125 C-3.625 0.125 -3.625 0.125 0 0 Z " fill="#0E2235" transform="translate(27.625,21.875)"/>
<path d="M0 0 C0.33 0.66 0.66 1.32 1 2 C-1 5 -1 5 -3.1640625 5.51171875 C-3.97617187 5.56972656 -4.78828125 5.62773437 -5.625 5.6875 C-6.85089844 5.78611328 -6.85089844 5.78611328 -8.1015625 5.88671875 C-8.72804688 5.92410156 -9.35453125 5.96148438 -10 6 C-9.67 4.35 -9.34 2.7 -9 1 C-4.545 0.505 -4.545 0.505 0 0 Z " fill="#0E2539" transform="translate(32,13)"/>
<path d="M0 0 C2.97 0.33 5.94 0.66 9 1 C9 2.32 9 3.64 9 5 C6.36 5 3.72 5 1 5 C0.67 3.35 0.34 1.7 0 0 Z " fill="#13273D" transform="translate(8,39)"/>
<path d="M0 0 C2.64 0 5.28 0 8 0 C8 1.32 8 2.64 8 4 C5.36 4 2.72 4 0 4 C0 2.68 0 1.36 0 0 Z " fill="#112B42" transform="translate(49,57)"/>
<path d="M0 0 C2.64 0 5.28 0 8 0 C8 1.32 8 2.64 8 4 C5.36 4 2.72 4 0 4 C0 2.68 0 1.36 0 0 Z " fill="#112A41" transform="translate(9,31)"/>
<path d="M0 0 C2.64 0 5.28 0 8 0 C8 1.32 8 2.64 8 4 C5.36 4 2.72 4 0 4 C0 2.68 0 1.36 0 0 Z " fill="#112940" transform="translate(9,14)"/>
<path d="M0 0 C1.23556641 0.01740234 1.23556641 0.01740234 2.49609375 0.03515625 C3.32238281 0.04417969 4.14867187 0.05320313 5 0.0625 C5.63808594 0.07410156 6.27617187 0.08570313 6.93359375 0.09765625 C6.60359375 1.41765625 6.27359375 2.73765625 5.93359375 4.09765625 C2.55859375 4.28515625 2.55859375 4.28515625 -1.06640625 4.09765625 C-1.72640625 3.10765625 -2.38640625 2.11765625 -3.06640625 1.09765625 C-2.06640625 0.09765625 -2.06640625 0.09765625 0 0 Z " fill="#122B42" transform="translate(25.06640625,39.90234375)"/>
<path d="M0 0 C2.31 0 4.62 0 7 0 C7 0.66 7 1.32 7 2 C8.65 2.33 10.3 2.66 12 3 C12 3.33 12 3.66 12 4 C8.7 4 5.4 4 2 4 C2 3.01 2 2.02 2 1 C1.34 0.67 0.68 0.34 0 0 Z " fill="#13324D" transform="translate(12,2)"/>
<path d="M0 0 C2.33944736 0.28730055 4.6739143 0.61936779 7 1 C7.33 1.99 7.66 2.98 8 4 C4.625 4.1875 4.625 4.1875 1 4 C0.34 3.01 -0.32 2.02 -1 1 C-0.67 0.67 -0.34 0.34 0 0 Z " fill="#13334E" transform="translate(43,27)"/>
<path d="M0 0 C2.64 0.33 5.28 0.66 8 1 C7.67 2.32 7.34 3.64 7 5 C5.35 5 3.7 5 2 5 C2 4.01 2 3.02 2 2 C1.34 1.34 0.68 0.68 0 0 Z " fill="#0F253A" transform="translate(47,27)"/>
<path d="M0 0 C2.31 0 4.62 0 7 0 C7.33 1.32 7.66 2.64 8 4 C7.34 4 6.68 4 6 4 C6 3.34 6 2.68 6 2 C3.69 2 1.38 2 -1 2 C-0.67 1.34 -0.34 0.68 0 0 Z " fill="#132A3F" transform="translate(24,22)"/>
<path d="M0 0 C2.31 0.33 4.62 0.66 7 1 C7 1.66 7 2.32 7 3 C4.69 3 2.38 3 0 3 C0 2.01 0 1.02 0 0 Z " fill="#15334F" transform="translate(25,4)"/>
<path d="" fill="#000000" transform="translate(0,0)"/>
<path d="" fill="#000000" transform="translate(0,0)"/>
<path d="" fill="#000000" transform="translate(0,0)"/>
<path d="" fill="#000000" transform="translate(0,0)"/>
<path d="" fill="#000000" transform="translate(0,0)"/>
<path d="" fill="#000000" transform="translate(0,0)"/>
<path d="" fill="#000000" transform="translate(0,0)"/>
<path d="" fill="#000000" transform="translate(0,0)"/>
<path d="" fill="#000000" transform="translate(0,0)"/>
<path d="" fill="#000000" transform="translate(0,0)"/>
<path d="" fill="#000000" transform="translate(0,0)"/>
<path d="" fill="#000000" transform="translate(0,0)"/>
<path d="" fill="#000000" transform="translate(0,0)"/>
<path d="" fill="#000000" transform="translate(0,0)"/>
<path d="" fill="#000000" transform="translate(0,0)"/>
<path d="" fill="#000000" transform="translate(0,0)"/>
<path d="" fill="#000000" transform="translate(0,0)"/>
<path d="" fill="#000000" transform="translate(0,0)"/>
<path d="" fill="#000000" transform="translate(0,0)"/>
<path d="" fill="#000000" transform="translate(0,0)"/>
<path d="" fill="#000000" transform="translate(0,0)"/>
<path d="" fill="#000000" transform="translate(0,0)"/>
<path d="" fill="#000000" transform="translate(0,0)"/>
<path d="" fill="#000000" transform="translate(0,0)"/>
<path d="" fill="#000000" transform="translate(0,0)"/>
<path d="" fill="#000000" transform="translate(0,0)"/>
<path d="" fill="#000000" transform="translate(0,0)"/>
<path d="" fill="#000000" transform="translate(0,0)"/>
<path d="" fill="#000000" transform="translate(0,0)"/>
<path d="" fill="#000000" transform="translate(0,0)"/>
<path d="" fill="#000000" transform="translate(0,0)"/>
<path d="" fill="#000000" transform="translate(0,0)"/>
<path d="" fill="#000000" transform="translate(0,0)"/>
<path d="" fill="#000000" transform="translate(0,0)"/>
<path d="" fill="#000000" transform="translate(0,0)"/>
<path d="" fill="#000000" transform="translate(0,0)"/>
<path d="" fill="#000000" transform="translate(0,0)"/>
<path d="" fill="#000000" transform="translate(0,0)"/>
<path d="" fill="#000000" transform="translate(0,0)"/>
<path d="" fill="#000000" transform="translate(0,0)"/>
<path d="" fill="#000000" transform="translate(0,0)"/>
<path d="" fill="#000000" transform="translate(0,0)"/>
<path d="" fill="#000000" transform="translate(0,0)"/>
<path d="" fill="#000000" transform="translate(0,0)"/>
<path d="" fill="#000000" transform="translate(0,0)"/>
<path d="" fill="#000000" transform="translate(0,0)"/>
<path d="" fill="#000000" transform="translate(0,0)"/>
<path d="" fill="#000000" transform="translate(0,0)"/>
<path d="" fill="#000000" transform="translate(0,0)"/>
<path d="" fill="#000000" transform="translate(0,0)"/>
<path d="" fill="#000000" transform="translate(0,0)"/>
<path d="" fill="#000000" transform="translate(0,0)"/>
<path d="" fill="#000000" transform="translate(0,0)"/>
<path d="" fill="#000000" transform="translate(0,0)"/>
<path d="" fill="#000000" transform="translate(0,0)"/>
<path d="" fill="#000000" transform="translate(0,0)"/>
<path d="" fill="#000000" transform="translate(0,0)"/>
<path d="" fill="#000000" transform="translate(0,0)"/>
<path d="" fill="#000000" transform="translate(0,0)"/>
</svg>
