<?xml version="1.0" encoding="UTF-8"?>
<svg version="1.1" xmlns="http://www.w3.org/2000/svg" width="78" height="78">
<path d="M0 0 C1.5625 1.125 1.5625 1.125 2.5625 3.125 C2.60272391 5.4579866 2.60570247 7.79206666 2.5625 10.125 C3.5525 9.795 4.5425 9.465 5.5625 9.125 C5.541875 8.2175 5.52125 7.31 5.5 6.375 C5.5625 3.125 5.5625 3.125 6.5625 -0.875 C11.8425 -0.875 17.1225 -0.875 22.5625 -0.875 C23.0575 4.075 23.0575 4.075 23.5625 9.125 C24.5525 9.125 25.5425 9.125 26.5625 9.125 C26.541875 8.2175 26.52125 7.31 26.5 6.375 C26.55201889 3.67001751 26.85427628 1.69021977 27.5625 -0.875 C29.47845968 -0.95633791 31.39541932 -1.01434367 33.3125 -1.0625 C34.91351563 -1.11470703 34.91351563 -1.11470703 36.546875 -1.16796875 C39.91702982 -0.84055734 41.26809844 -0.34589399 43.5625 2.125 C44.09049676 4.88642303 43.74848981 7.28865545 43.5625 10.125 C45.480625 10.063125 45.480625 10.063125 47.4375 10 C49.6171875 9.9296875 49.6171875 9.9296875 51.5625 10.125 C53.5625 12.125 53.5625 12.125 53.7578125 14.2890625 C53.69270833 16.56770833 53.62760417 18.84635417 53.5625 21.125 C48.2825 21.125 43.0025 21.125 37.5625 21.125 C37.46484375 14.19140625 37.46484375 14.19140625 37.5625 12.125 C37.8925 11.795 38.2225 11.465 38.5625 11.125 C36.5825 11.125 34.6025 11.125 32.5625 11.125 C33.0575 12.115 33.0575 12.115 33.5625 13.125 C33.5625 15.765 33.5625 18.405 33.5625 21.125 C27.9525 21.125 22.3425 21.125 16.5625 21.125 C16.0675 16.67 16.0675 16.67 15.5625 12.125 C16.2225 11.795 16.8825 11.465 17.5625 11.125 C15.5825 11.125 13.6025 11.125 11.5625 11.125 C12.2225 11.785 12.8825 12.445 13.5625 13.125 C13.2325 15.765 12.9025 18.405 12.5625 21.125 C6.9525 21.125 1.3425 21.125 -4.4375 21.125 C-4.4375 13.125 -4.4375 13.125 -3.4375 11.125 C-5.4175 11.125 -7.3975 11.125 -9.4375 11.125 C-9.1075 11.455 -8.7775 11.785 -8.4375 12.125 C-8.29556663 15.12831018 -8.39513622 18.11717134 -8.4375 21.125 C-13.7175 21.125 -18.9975 21.125 -24.4375 21.125 C-24.6328125 14.2890625 -24.6328125 14.2890625 -24.4375 12.125 C-22.4375 10.125 -22.4375 10.125 -20.4921875 9.9296875 C-18.47395833 9.99479167 -16.45572917 10.05989583 -14.4375 10.125 C-14.52 8.866875 -14.6025 7.60875 -14.6875 6.3125 C-14.65995384 2.42160512 -14.65995384 2.42160512 -12.9375 0.125 C-8.61936261 -1.60225496 -4.37000608 -1.56872013 0 0 Z M-10.4375 3.125 C-10.4375 4.115 -10.4375 5.105 -10.4375 6.125 C-7.4675 6.125 -4.4975 6.125 -1.4375 6.125 C-1.7675 5.135 -2.0975 4.145 -2.4375 3.125 C-5.0775 3.125 -7.7175 3.125 -10.4375 3.125 Z M10.5625 3.125 C10.2325 4.115 9.9025 5.105 9.5625 6.125 C12.8625 6.125 16.1625 6.125 19.5625 6.125 C19.2325 5.135 18.9025 4.145 18.5625 3.125 C15.9225 3.125 13.2825 3.125 10.5625 3.125 Z M31.5625 3.125 C31.2325 4.115 30.9025 5.105 30.5625 6.125 C33.5325 6.125 36.5025 6.125 39.5625 6.125 C39.2325 5.135 38.9025 4.145 38.5625 3.125 C36.2525 3.125 33.9425 3.125 31.5625 3.125 Z M-21.4375 14.125 C-21.4375 15.445 -21.4375 16.765 -21.4375 18.125 C-18.4675 18.125 -15.4975 18.125 -12.4375 18.125 C-12.4375 16.805 -12.4375 15.485 -12.4375 14.125 C-15.4075 14.125 -18.3775 14.125 -21.4375 14.125 Z M-0.4375 14.125 C-0.4375 15.445 -0.4375 16.765 -0.4375 18.125 C2.5325 18.125 5.5025 18.125 8.5625 18.125 C8.5625 16.805 8.5625 15.485 8.5625 14.125 C5.5925 14.125 2.6225 14.125 -0.4375 14.125 Z M20.5625 14.125 C20.5625 15.445 20.5625 16.765 20.5625 18.125 C23.5325 18.125 26.5025 18.125 29.5625 18.125 C29.5625 16.805 29.5625 15.485 29.5625 14.125 C26.5925 14.125 23.6225 14.125 20.5625 14.125 Z M41.5625 14.125 C41.5625 15.445 41.5625 16.765 41.5625 18.125 C44.5325 18.125 47.5025 18.125 50.5625 18.125 C50.5625 16.805 50.5625 15.485 50.5625 14.125 C47.5925 14.125 44.6225 14.125 41.5625 14.125 Z " fill="#10283F" transform="translate(24.4375,56.875)"/>
<path d="M0 0 C0.70548981 0.00202423 1.41097961 0.00404846 2.1378479 0.00613403 C3.24756454 0.00350555 3.24756454 0.00350555 4.37969971 0.00082397 C6.83686638 -0.00359453 9.29396168 -0.00065657 11.75112915 0.00271606 C13.45124322 0.00204302 15.1513572 0.001073 16.85147095 -0.00018311 C20.41926996 -0.00166008 23.98704398 0.00049445 27.55484009 0.00515747 C32.13851409 0.01085476 36.72212954 0.00757575 41.30580139 0.00158501 C44.81782476 -0.00202063 48.32983414 -0.00088201 51.84185791 0.0017128 C53.53243008 0.00238206 55.22300351 0.00155367 56.91357422 -0.00076675 C59.27222072 -0.00329332 61.6307711 0.00054735 63.9894104 0.00613403 C64.69490021 0.0041098 65.40039001 0.00208557 66.1272583 0 C70.94936644 0.02126585 70.94936644 0.02126585 72.06362915 1.13552856 C72.1725039 2.6898564 72.21267249 4.24907002 72.22476196 5.80715942 C72.23436951 6.80166611 72.24397705 7.79617279 72.25387573 8.82081604 C72.25812561 9.90306961 72.26237549 10.98532318 72.26675415 12.10037231 C72.27245422 13.20401627 72.2781543 14.30766022 72.2840271 15.44474792 C72.29349312 17.78429195 72.30001741 20.12384941 72.30386353 22.46340942 C72.31357827 26.05422032 72.34459092 29.64446133 72.37612915 33.23513794 C72.3826578 35.50271265 72.38790881 37.77029147 72.39175415 40.03787231 C72.40410095 41.11810165 72.41644775 42.19833099 72.4291687 43.31129456 C72.4261676 44.3089534 72.4231665 45.30661224 72.42007446 46.33450317 C72.42554291 47.65568398 72.42554291 47.65568398 72.43112183 49.0035553 C72.30984924 49.70710648 72.18857666 50.41065765 72.06362915 51.13552856 C68.37802311 53.59259926 66.55882333 53.38877899 62.1612854 53.39431763 C61.46340912 53.39782227 60.76553284 53.4013269 60.04650879 53.40493774 C57.7396144 53.41374039 55.43302667 53.40791121 53.12612915 53.40115356 C51.52334535 53.40250064 49.92056194 53.40444153 48.31777954 53.4069519 C44.95860911 53.40990117 41.59954504 53.40561189 38.24038696 53.39627075 C33.9326684 53.38487629 29.62519905 53.39143682 25.31748962 53.40341568 C22.00782389 53.41063962 18.69821732 53.4083439 15.3885498 53.4031601 C13.80010956 53.40182508 12.21166397 53.40346616 10.62322998 53.4081192 C8.40399934 53.41319324 6.18517338 53.40546215 3.9659729 53.39431763 C2.70261108 53.39272644 1.43924927 53.39113525 0.13760376 53.38949585 C-2.93637085 53.13552856 -2.93637085 53.13552856 -5.93637085 51.13552856 C-6.30386353 49.0035553 -6.30386353 49.0035553 -6.29281616 46.33450317 C-6.29581726 45.33684433 -6.29881836 44.33918549 -6.3019104 43.31129456 C-6.2895636 42.23106522 -6.2772168 41.15083588 -6.26449585 40.03787231 C-6.26262268 38.93327164 -6.26074951 37.82867096 -6.25881958 36.69059753 C-6.25208873 34.35279325 -6.23815393 32.01500041 -6.21762085 29.67727661 C-6.18647013 26.08447903 -6.17665242 22.49211965 -6.17074585 18.89920044 C-6.16157625 16.63291901 -6.15120062 14.36664207 -6.13949585 12.10037231 C-6.13524597 11.01811874 -6.13099609 9.93586517 -6.12661743 8.82081604 C-6.11700989 7.82630936 -6.10740234 6.83180267 -6.09750366 5.80715942 C-6.09067566 4.92716782 -6.08384766 4.04717621 -6.07681274 3.14051819 C-5.79813717 -0.83793591 -3.430112 0.01512705 0 0 Z M-2.93637085 3.13552856 C-2.93637085 18.31552856 -2.93637085 33.49552856 -2.93637085 49.13552856 C20.82362915 49.13552856 44.58362915 49.13552856 69.06362915 49.13552856 C69.06362915 33.95552856 69.06362915 18.77552856 69.06362915 3.13552856 C45.30362915 3.13552856 21.54362915 3.13552856 -2.93637085 3.13552856 Z " fill="#132E48" transform="translate(5.936370849609375,-0.135528564453125)"/>
<path d="M0 0 C5.28 0 10.56 0 16 0 C16.33 3.3 16.66 6.6 17 10 C12.38 9.34 7.76 8.68 3 8 C3 7.67 3 7.34 3 7 C6.3 7 9.6 7 13 7 C11.12503181 4.66376157 11.12503181 4.66376157 8.0625 4.9375 C7.051875 4.958125 6.04125 4.97875 5 5 C4.01 4.67 3.02 4.34 2 4 C1.34 5.98 0.68 7.96 0 10 C-0.33 10 -0.66 10 -1 10 C-1.08304117 6.34618837 -0.89694794 3.58779175 0 0 Z " fill="#0E2438" transform="translate(31,56)"/>
<path d="M0 0 C0.99 0.33 1.98 0.66 3 1 C2.67 2.98 2.34 4.96 2 7 C5.3 7 8.6 7 12 7 C12 5.02 12 3.04 12 1 C12.99 1.66 13.98 2.32 15 3 C15 5.31 15 7.62 15 10 C9.72 10 4.44 10 -1 10 C-1.09765625 3.06640625 -1.09765625 3.06640625 -1 1 C-0.67 0.67 -0.34 0.34 0 0 Z " fill="#14304B" transform="translate(63,68)"/>
<path d="M0 0 C3.96 0 7.92 0 12 0 C12.33 2.64 12.66 5.28 13 8 C8.38 8.66 3.76 9.32 -1 10 C-1 4 -1 4 0 0 Z M4 4 C3.67 4.99 3.34 5.98 3 7 C5.97 7 8.94 7 12 7 C11.67 6.01 11.34 5.02 11 4 C8.69 4 6.38 4 4 4 Z " fill="#0E2033" transform="translate(52,56)"/>
<path d="M0 0 C2.5 1 2.5 1 4 2 C3.01 3.98 2.02 5.96 1 8 C-2.3 8 -5.6 8 -9 8 C-9.33 5.69 -9.66 3.38 -10 1 C-6.83013832 -0.58493084 -3.45967739 -0.2940042 0 0 Z M-8 4 C-8 4.99 -8 5.98 -8 7 C-5.03 7 -2.06 7 1 7 C0.67 6.01 0.34 5.02 0 4 C-2.64 4 -5.28 4 -8 4 Z " fill="#0F2339" transform="translate(22,56)"/>
<path d="M0 0 C0.99 0.495 0.99 0.495 2 1 C2 2.32 2 3.64 2 5 C5.3 5 8.6 5 12 5 C12.33 3.68 12.66 2.36 13 1 C13.33 3.31 13.66 5.62 14 8 C9.38 8 4.76 8 0 8 C0 5.36 0 2.72 0 0 Z " fill="#14314C" transform="translate(42,70)"/>
<path d="M0 0 C0 2.64 0 5.28 0 8 C-4.95 8 -9.9 8 -15 8 C-11.68629 5.79086 -10.6553979 5.77518447 -6.8125 5.875 C-5.91144531 5.89304687 -5.01039062 5.91109375 -4.08203125 5.9296875 C-3.39496094 5.95289063 -2.70789063 5.97609375 -2 6 C-2 4.35 -2 2.7 -2 1 C-4.97 1 -7.94 1 -11 1 C-11 0.67 -11 0.34 -11 0 C-3.375 -1.125 -3.375 -1.125 0 0 Z " fill="#153452" transform="translate(67,58)"/>
<path d="M0 0 C0.99 0.495 0.99 0.495 2 1 C2 2.65 2 4.3 2 6 C3.60520004 5.93976735 5.20934327 5.85091401 6.8125 5.75 C7.70582031 5.70359375 8.59914063 5.6571875 9.51953125 5.609375 C12.16053515 5.20878584 12.16053515 5.20878584 13.82421875 2.953125 C14.21222656 2.30859375 14.60023437 1.6640625 15 1 C15 3.31 15 5.62 15 8 C10.05 8 5.1 8 0 8 C0 5.36 0 2.72 0 0 Z " fill="#163553" transform="translate(11,58)"/>
<path d="M0 0 C0.66 0.66 1.32 1.32 2 2 C1.67 2.99 1.34 3.98 1 5 C2.03060547 4.96519531 2.03060547 4.96519531 3.08203125 4.9296875 C4.43361328 4.90261719 4.43361328 4.90261719 5.8125 4.875 C6.70582031 4.85179687 7.59914063 4.82859375 8.51953125 4.8046875 C11 5 11 5 14 7 C8.72 7 3.44 7 -2 7 C-2 2 -2 2 0 0 Z " fill="#153350" transform="translate(33,59)"/>
<path d="M0 0 C4.29 0 8.58 0 13 0 C13 0.99 13 1.98 13 3 C8.71 3 4.42 3 0 3 C0 2.01 0 1.02 0 0 Z " fill="#14304B" transform="translate(22,75)"/>
<path d="M0 0 C3.96 0 7.92 0 12 0 C12.33 0.66 12.66 1.32 13 2 C11.95199219 2.07347656 11.95199219 2.07347656 10.8828125 2.1484375 C9.97273438 2.22320312 9.06265625 2.29796875 8.125 2.375 C7.22007813 2.44460937 6.31515625 2.51421875 5.3828125 2.5859375 C2.82058097 2.79568132 2.82058097 2.79568132 1 5 C0.35232207 7.57061311 0.35232207 7.57061311 0 10 C-0.33 10 -0.66 10 -1 10 C-1.08304117 6.34618837 -0.89694794 3.58779175 0 0 Z " fill="#0A1828" transform="translate(31,56)"/>
<path d="M0 0 C0.66 0.33 1.32 0.66 2 1 C2.625 3.5625 2.625 3.5625 3 6 C1.68 6.33 0.36 6.66 -1 7 C-1.04254356 5.00045254 -1.04080783 2.99958364 -1 1 C-0.67 0.67 -0.34 0.34 0 0 Z " fill="#0E273F" transform="translate(52,59)"/>
<path d="M0 0 C2 1 2 1 2 1 Z " fill="#000000" transform="translate(66,56)"/>
<path d="M0 0 C2 1 2 1 2 1 Z " fill="#000000" transform="translate(10,56)"/>
<path d="" fill="#000000" transform="translate(0,0)"/>
<path d="" fill="#000000" transform="translate(0,0)"/>
<path d="" fill="#000000" transform="translate(0,0)"/>
<path d="" fill="#000000" transform="translate(0,0)"/>
<path d="" fill="#000000" transform="translate(0,0)"/>
<path d="" fill="#000000" transform="translate(0,0)"/>
<path d="" fill="#000000" transform="translate(0,0)"/>
<path d="" fill="#000000" transform="translate(0,0)"/>
<path d="" fill="#000000" transform="translate(0,0)"/>
<path d="" fill="#000000" transform="translate(0,0)"/>
<path d="" fill="#000000" transform="translate(0,0)"/>
<path d="" fill="#000000" transform="translate(0,0)"/>
<path d="" fill="#000000" transform="translate(0,0)"/>
<path d="" fill="#000000" transform="translate(0,0)"/>
<path d="" fill="#000000" transform="translate(0,0)"/>
</svg>
